C:\Users\israe\Dropbox\PhDWork\ExperimentalData\subject7\145\P7S145W14_filtered35.mot
nRows=15
nColumns=28

name C:\Users\israe\Dropbox\PhDWork\ExperimentalData\subject7\145\P7S145W14_filtered35.mot
datacolumns 28
datarows 15
range 1.0100000000 1.0240000000
endheader
time	ground_force_1_vx	ground_force_1_vy	ground_force_1_vz	ground_force_1_px	ground_force_1_py	ground_force_1_pz	ground_moment_1_mx	ground_moment_1_my	ground_moment_1_mz	ground_force_2_vx	ground_force_2_vy	ground_force_2_vz	ground_force_2_px	ground_force_2_py	ground_force_2_pz	ground_moment_2_mx	ground_moment_2_my	ground_moment_2_mz	ground_force_3_vx	ground_force_3_vy	ground_force_3_vz	ground_force_3_px	ground_force_3_py	ground_force_3_pz	ground_moment_3_mx	ground_moment_3_my	ground_moment_3_mz
        1.0100000000	       -0.9330415330	        2.1098205727	       -3.1099473057	        0.1988394910	        0.0000558755	       -0.3004071320	       -0.6596497942	       -0.2047442303	        0.0268348906	      -24.3304055336	      694.5819236616	     -149.5721264383	        0.2029003487	       -0.0000795827	        0.4543649445	      -94.4744556557	       -7.0831713537	      -18.3154107759	       -0.0000000000	        0.0000000000	        0.0000000000	        0.2076431971	        0.0000770316	        1.3583900146	        0.0000000000	       -0.0000000000	        0.0000000000	
        1.0110000000	       -0.6505770026	       10.0228413725	       -2.7422540404	        0.1988394910	        0.0000558755	       -0.3004071320	       -2.9826210235	       -0.1463820846	        0.2068231128	      -24.5558689362	      688.5838210511	     -150.7621261998	        0.2029003487	       -0.0000795827	        0.4543649445	      -93.4894297774	       -7.0570702833	      -18.1314832486	       -0.0000000000	        0.0000000000	        0.0000000000	        0.2076431971	        0.0000770316	        1.3583900146	        0.0000000000	        0.0000000000	        0.0000000000	
        1.0120000000	       -0.1742977115	       20.7567076413	       -1.9472279628	        0.1988394910	        0.0000558755	       -0.3004071320	       -6.1299682595	       -0.0468697607	        0.4529274420	      -24.7833414536	      682.3331662892	     -151.9065317979	        0.2029003487	       -0.0000795827	        0.4543649445	      -92.4720128661	       -7.0297309017	      -17.9396519119	       -0.0000000000	        0.0000000000	        0.0000000000	        0.2076431971	        0.0000770316	        1.3583900146	       -0.0000000000	        0.0000000000	       -0.0000000000	
        1.0130000000	        0.5435744335	       34.6556894563	       -0.5959670834	        0.1988394910	        0.0000558755	       -0.3004071320	      -10.2013387051	        0.1040855182	        0.7737231263	      -25.0164063340	      675.8283811358	     -153.0002610225	        0.2029003487	       -0.0000795827	        0.4543649445	      -91.4207222542	       -7.0018655937	      -17.7395519270	       -0.0000000000	        0.0000000000	       -0.0000000000	        0.2076431971	        0.0000770316	        1.3583900146	       -0.0000000000	        0.0000000000	       -0.0000000000	
        1.0140000000	        1.5511271966	       51.9347549780	        1.4500915673	        0.1988394910	        0.0000558755	       -0.3004071320	      -15.2582245201	        0.3168989375	        1.1749476636	      -25.2590221266	      669.0634108441	     -154.0355115334	        0.2029003487	       -0.0000795827	        0.4543649445	      -90.3336900859	       -6.9741346082	      -17.5308015962	       -0.0000000000	        0.0000000000	       -0.0000000000	        0.2076431971	        0.0000770316	        1.3583900146	       -0.0000000000	        0.0000000000	       -0.0000000000	
        1.0150000000	        2.8924985212	       72.6135062418	        4.3321909631	        0.1988394910	        0.0000558755	       -0.3004071320	      -21.3042620686	        0.6011374792	        1.6579479671	      -25.5159894138	      662.0281051061	     -155.0064549258	        0.2029003487	       -0.0000795827	        0.4543649445	      -89.2090698773	       -6.9473704463	      -17.3130029619	       -0.0000000000	        0.0000000000	       -0.0000000000	        0.2076431971	        0.0000770316	        1.3583900146	       -0.0000000000	        0.0000000000	       -0.0000000000	
        1.0160000000	        4.6030055990	       96.4864940564	        8.1873453118	        0.1988394910	        0.0000558755	       -0.3004071320	      -28.2755111448	        0.9640451613	        2.2188445711	      -25.7912093039	      654.7112765911	     -155.9068897893	        0.2029003487	       -0.0000795827	        0.4543649445	      -88.0449817395	       -6.9225511402	      -17.0860514816	       -0.0000000000	        0.0000000000	       -0.0000000000	        0.2076431971	        0.0000770316	        1.3583900146	       -0.0000000000	        0.0000000000	       -0.0000000000	
        1.0170000000	        6.7053653586	      123.1482527773	       13.1389004348	        0.1988394910	        0.0000558755	       -0.3004071320	      -36.0470192349	        1.4089765322	        2.8488137118	      -26.0866914469	      647.1043012232	     -156.7279755773	        0.2029003487	       -0.0000795827	        0.4543649445	      -86.8394992638	       -6.9008008481	      -16.8503959388	        0.0000000000	        0.0000000000	       -0.0000000000	        0.2076431971	        0.0000770316	        1.3583900146	       -0.0000000000	        0.0000000000	       -0.0000000000	
        1.0180000000	        9.2072539024	      152.0431715504	       19.2778593724	        0.1988394910	        0.0000558755	       -0.3004071320	      -44.4479802250	        1.9349174483	        3.5349161868	      -26.4028641628	      639.2008267533	     -157.4627985086	        0.2029003487	       -0.0000795827	        0.4543649445	      -85.5910852509	       -6.8832509384	      -16.6067228842	        0.0000000000	        0.0000000000	       -0.0000000000	        0.2076431971	        0.0000770316	        1.3583900146	       -0.0000000000	        0.0000000000	       -0.0000000000	
        1.0190000000	       12.1000514286	      182.5153795892	       26.6386609058	        0.1988394910	        0.0000558755	       -0.3004071320	      -53.2780347074	        2.5375680592	        4.2611665891	      -26.7392762820	      630.9925199024	     -158.1051513930	        0.2029003487	       -0.0000795827	        0.4543649445	      -84.2987864246	       -6.8706940414	      -16.3554378949	        0.0000000000	        0.0000000000	       -0.0000000000	        0.2076431971	        0.0000770316	        1.3583900146	       -0.0000000000	        0.0000000000	       -0.0000000000	
        1.0200000000	       15.3598506866	      213.8607886181	       35.1795287943	        0.1988394910	        0.0000558755	       -0.3004071320	      -62.3245410786	        3.2107673755	        5.0102790320	      -27.0954183562	      622.4667932242	     -158.6448771783	        0.2029003487	       -0.0000795827	        0.4543649445	      -82.9617357454	       -6.8635702319	      -16.0966456657	        0.0000000000	        0.0000000000	       -0.0000000000	        0.2076431971	        0.0000770316	        1.3583900146	       -0.0000000000	        0.0000000000	       -0.0000000000	
        1.0210000000	       18.9502838277	      245.3840888036	       44.7691391908	        0.1988394910	        0.0000558755	       -0.3004071320	      -71.3801804801	        3.9474304692	        5.7657568721	      -27.4702429402	      613.6093821647	     -159.0694256433	        0.2029003487	       -0.0000795827	        0.4543649445	      -81.5789736309	       -6.8618448002	      -15.8304173863	        0.0000000000	        0.0000000000	       -0.0000000000	        0.2076431971	        0.0000770316	        1.3583900146	       -0.0000000000	        0.0000000000	       -0.0000000000	
        1.0220000000	       22.8253141467	      276.4545062164	       55.1824357589	        0.1988394910	        0.0000558755	       -0.3004071320	      -80.2587565413	        4.7405104666	        6.5131222331	      -27.8610265349	      604.4076120324	     -159.3661411180	        0.2029003487	       -0.0000795827	        0.4543649445	      -80.1495742146	       -6.8648558168	      -15.5566927551	        0.0000000000	        0.0000000000	       -0.0000000000	        0.2076431971	        0.0000770316	        1.3583900146	       -0.0000000000	        0.0000000000	       -0.0000000000	
        1.0230000000	       26.9307769807	      306.5482019767	       66.1128609836	        0.1988394910	        0.0000558755	       -0.3004071320	      -88.8073206772	        5.5834069835	        7.2402599139	      -28.2637674830	      594.8504553713	     -159.5214655941	        0.2029003487	       -0.0000795827	        0.4543649445	      -78.6723487614	       -6.8715954633	      -15.2750626733	        0.0000000000	        0.0000000000	       -0.0000000000	        0.2076431971	        0.0000770316	        1.3583900146	       -0.0000000000	        0.0000000000	       -0.0000000000	
        1.0240000000	       31.2039317291	      335.2692036961	       77.1982018755	        0.1988394910	        0.0000558755	       -0.3004071320	      -96.9126529072	        6.4686794900	        7.9377287794	      -28.6735874806	      584.9263498338	     -159.5213613551	        0.2029003487	       -0.0000795827	        0.4543649445	      -77.1457424037	       -6.8807025937	      -14.9849800018	        0.0000000000	        0.0000000000	       -0.0000000000	        0.2076431971	        0.0000770316	        1.3583900146	       -0.0000000000	        0.0000000000	       -0.0000000000	
